<?xml version="1.0" encoding="utf-8"?>
<!-- Generator: Adobe Illustrator 27.5.0, SVG Export Plug-In . SVG Version: 6.00 Build 0)  -->
<svg version="1.1" xmlns="http://www.w3.org/2000/svg" xmlns:xlink="http://www.w3.org/1999/xlink" x="0px" y="0px"
	 viewBox="0 0 500 500" style="enable-background:new 0 0 500 500;" xml:space="preserve">
<g id="Background_Simple">
	<g>
		<path style="fill:#92E3A9;" d="M411.994,117.613c0,0-87.445-84.835-189.9-75.046C119.64,52.355,2.176,252.044,25.016,321.217
			s98.539,124.642,186.637,144.22c88.098,19.577,175.696-10.56,218.613-72.436S529.458,255.307,411.994,117.613z"/>
		<path style="opacity:0.7;fill:#FFFFFF;" d="M411.994,117.613c0,0-87.445-84.835-189.9-75.046
			C119.64,52.355,2.176,252.044,25.016,321.217s98.539,124.642,186.637,144.22c88.098,19.577,175.696-10.56,218.613-72.436
			S529.458,255.307,411.994,117.613z"/>
	</g>
</g>
<g id="Plant_1_">
	<g>
		<g>
			<g>
				<path style="fill:#263238;" d="M443,306.064l0.002-0.005c0.014-0.036-0.003-0.078-0.039-0.094
					c-0.037-0.016-0.08,0.001-0.096,0.038c-2.22,5.126-3.78,10.507-5.083,15.935c-1.257,5.443-2.168,10.964-2.805,16.52
					l-0.397,4.175c-0.062,0.696-0.137,1.392-0.187,2.09l-0.114,2.095c-0.06,1.397-0.146,2.794-0.186,4.193l0.038,4.196l0.047,2.097
					c0.031,0.699,0.081,1.396,0.129,2.094c0.106,1.395,0.191,2.79,0.319,4.181c0.267,2.781,0.685,5.549,1.116,8.303
					c0.006,0.035,0.036,0.062,0.073,0.062c0.04,0,0.073-0.033,0.073-0.074v-0.004c-0.007-1.399-0.066-2.79-0.098-4.182
					c-0.04-1.391-0.161-2.775-0.142-4.166c0.007-1.391-0.03-2.778-0.045-4.165l-0.039-2.08l0.037-2.08l0.019-4.158l0.113-4.156
					l0.043-2.08c0.027-0.693,0.078-1.384,0.117-2.076l0.255-4.153c0.486-5.527,1.246-11.033,2.352-16.476
					C439.605,316.658,440.971,311.242,443,306.064z"/>
				<path style="fill:#263238;" d="M443.596,327.806c0.011-0.037-0.009-0.079-0.046-0.092c-0.038-0.013-0.08,0.007-0.094,0.045
					c-1.197,3.455-2.152,6.989-2.96,10.56c-0.772,3.577-1.378,7.201-1.747,10.853c-0.369,3.638-0.776,7.281-0.826,10.94
					c-0.056,3.657,0.002,7.318,0.389,10.971c0.004,0.034,0.031,0.062,0.066,0.066c0.041,0.004,0.077-0.025,0.081-0.066
					c0.422-3.643,0.68-7.276,0.932-10.908c0.258-3.631,0.293-7.272,0.529-10.904c0.219-3.621,0.674-7.227,1.297-10.81
					C441.828,334.878,442.59,331.308,443.596,327.806z"/>
				<path style="fill:#263238;" d="M455.649,335.455c-0.022-0.034-0.067-0.044-0.101-0.023c-3.017,1.91-5.708,4.316-8.06,7.027
					c-1.156,1.376-2.23,2.816-3.151,4.382l-0.648,1.222l-0.507,1.27c-0.183,0.421-0.31,0.855-0.442,1.287
					c-0.13,0.433-0.276,0.864-0.393,1.301c-0.905,3.493-1.505,7.053-1.668,10.632c-0.146,3.576-0.078,7.158,0.4,10.709
					c0.005,0.034,0.033,0.061,0.068,0.064c0.04,0.003,0.076-0.027,0.079-0.068l0.919-10.6c0.366-3.504,0.591-7.03,1.343-10.452
					c0.096-0.426,0.218-0.843,0.326-1.266c0.109-0.422,0.215-0.846,0.372-1.248l0.43-1.225l0.554-1.157
					c0.816-1.531,1.815-2.996,2.888-4.385c2.153-2.778,4.685-5.31,7.568-7.366l0.004-0.003
					C455.661,335.531,455.67,335.488,455.649,335.455z"/>
				<path style="fill:#263238;" d="M449.816,349.074c-1.643,1.06-2.741,2.728-3.665,4.406c-0.88,1.715-1.574,3.533-2.054,5.398
					c-0.144,0.462-0.258,0.93-0.358,1.4l-0.332,1.41c-0.169,0.947-0.302,1.903-0.356,2.862c-0.013,0.962-0.04,1.922,0.025,2.881
					c0.08,0.958,0.189,1.915,0.378,2.863c0.007,0.027,0.029,0.053,0.059,0.059c0.041,0.008,0.08-0.018,0.088-0.059
					c0.232-0.946,0.384-1.883,0.508-2.818c0.149-0.933,0.294-1.861,0.406-2.788c0.136-0.924,0.259-1.846,0.331-2.777
					c0.129-0.919,0.197-1.858,0.398-2.766c0.322-1.838,0.854-3.632,1.572-5.347c0.715-1.701,1.646-3.397,3.077-4.596l0.011-0.009
					c0.028-0.023,0.035-0.064,0.014-0.095C449.895,349.062,449.849,349.052,449.816,349.074z"/>
				<path style="fill:#263238;" d="M432.911,359.692c-0.396-4.706-1.173-9.365-1.906-14.021c-0.736-4.657-1.547-9.3-2.399-13.934
					c-0.882-4.629-1.804-9.249-2.803-13.853c-0.008-0.038-0.046-0.064-0.085-0.057c-0.04,0.007-0.066,0.046-0.059,0.085
					c0.805,4.639,1.534,9.291,2.222,13.947c0.706,4.653,1.371,9.312,1.96,13.978c0.575,4.669,1.023,9.349,1.608,14.009l1.721,14.009
					c0.004,0.035,0.033,0.063,0.07,0.065c0.04,0.002,0.075-0.03,0.077-0.07c0.054-1.18,0.055-2.361,0.084-3.544
					c0.011-1.182-0.048-2.36-0.069-3.542C433.29,364.398,433.088,362.046,432.911,359.692z"/>
				<path style="fill:#263238;" d="M430.089,359.624c-0.252-1.864-0.594-3.717-0.95-5.564l-0.661-2.747
					c-0.216-0.916-0.422-1.834-0.69-2.738c-0.939-3.645-2.139-7.229-3.597-10.701l-0.564-1.295l-0.627-1.267
					c-0.399-0.853-0.881-1.666-1.339-2.488c-0.984-1.603-2.005-3.204-3.397-4.503c-0.028-0.026-0.073-0.026-0.101,0.001
					c-0.029,0.028-0.03,0.074-0.002,0.104l0.007,0.007c1.286,1.333,2.224,2.979,3.107,4.606c0.409,0.837,0.842,1.659,1.192,2.523
					l0.553,1.281l0.49,1.307c1.304,3.484,2.349,7.065,3.136,10.705c0.429,1.81,0.713,3.656,1.064,5.481l0.441,2.758
					c0.159,0.917,0.356,1.828,0.485,2.75c0.294,1.84,0.632,3.675,0.953,5.516c0.285,1.846,0.622,3.689,1.012,5.533
					c0.007,0.033,0.037,0.061,0.072,0.061c0.041,0,0.074-0.033,0.074-0.073c0.008-1.88-0.035-3.761-0.131-5.639
					C430.507,363.363,430.285,361.495,430.089,359.624z"/>
				<path style="fill:#263238;" d="M426.195,359.864c-0.872-2.469-1.881-4.886-2.98-7.256c-1.128-2.357-2.346-4.669-3.748-6.871
					c-0.022-0.031-0.066-0.044-0.099-0.024c-0.035,0.021-0.046,0.066-0.026,0.101c1.225,2.287,2.26,4.673,3.199,7.086
					c0.955,2.407,1.816,4.849,2.537,7.33c0.736,2.478,1.263,5.005,1.923,7.494c0.693,2.488,1.254,5.001,2.019,7.521
					c0.009,0.03,0.037,0.054,0.071,0.055c0.041,0,0.074-0.032,0.075-0.073c0.037-2.628-0.221-5.256-0.732-7.829
					C427.972,364.809,427.062,362.331,426.195,359.864z"/>
				<path style="fill:#263238;" d="M426.033,368.089c-0.446-1.546-1.207-2.987-2.071-4.344c-0.849-1.364-1.834-2.654-3.015-3.747
					c-0.608-0.527-1.23-1.034-1.918-1.446c-0.677-0.423-1.396-0.781-2.175-0.983c-0.034-0.009-0.07,0.008-0.085,0.041
					c-0.016,0.037,0,0.08,0.037,0.097l0.009,0.004c1.41,0.627,2.602,1.666,3.609,2.803c1.021,1.139,1.835,2.446,2.514,3.807
					c0.714,1.352,1.083,2.846,1.704,4.238c0.274,0.714,0.546,1.432,0.863,2.145c0.269,0.728,0.567,1.453,0.946,2.174l0.002,0.004
					c0.012,0.023,0.036,0.039,0.064,0.04c0.042,0.002,0.077-0.031,0.079-0.072c0.034-0.805-0.013-1.606-0.09-2.405
					C426.389,369.654,426.222,368.869,426.033,368.089z"/>
			</g>
			<path style="fill:#92E3A9;" d="M426.324,324.62c0,0-7.711-1.779-9.49-10.084c-1.78-8.304,3.954-4.745-1.186-17.795
				c-5.141-13.049-3.954-16.015-2.175-19.772c1.78-3.757,2.768-2.57,4.35,2.373c1.582,4.943,7.316,12.654,9.491,27.088
				C429.488,320.863,426.324,324.62,426.324,324.62z"/>
			<path style="fill:#92E3A9;" d="M441.549,310.582c0,0-5.141-1.78-5.339-11.468c-0.198-9.688,3.757-7.711,4.35-19.772
				c0.593-12.061,1.384-20.563,3.559-20.761c2.175-0.198,7.909,5.932,9.886,19.377c1.977,13.445-2.57,22.342-6.525,26.297
				C443.526,308.209,441.549,310.582,441.549,310.582z"/>
			<path style="fill:#92E3A9;" d="M423.556,336.285c0,0-1.186-7.118-3.559-10.479c-2.373-3.362-7.513-6.327-10.875-12.852
				c-3.361-6.525-7.118-9.688-6.92-0.396c0.198,9.293,4.35,14.038,9.491,17.202C416.834,332.924,423.556,336.285,423.556,336.285z"
				/>
			<path style="fill:#92E3A9;" d="M421.382,348.544c0,0-4.745-9.095-11.665-15.818c-6.92-6.722-12.456-10.084-10.479-6.722
				c1.977,3.361,4.35,3.164,7.711,9.095c3.361,5.932,2.373,10.281,7.118,13.643C418.811,352.103,421.382,348.544,421.382,348.544z"
				/>
			<path style="fill:#92E3A9;" d="M420.788,360.209c-0.198-0.593-0.395-4.943-7.118-8.502c-6.723-3.559-13.05-2.175-12.259-0.396
				c0.791,1.78,4.943,4.746,9.095,6.525C414.659,359.616,420.788,360.209,420.788,360.209z"/>
			<path style="fill:#92E3A9;" d="M441.154,336.681c0,0-2.966-3.757-1.384-11.665c1.582-7.909,5.141-5.932,9.095-10.084
				c3.954-4.152,3.163-4.745,7.118-9.095c3.954-4.35,7.513-6.722,9.095-4.943c1.582,1.78-0.791,7.316-3.163,10.479
				c-2.373,3.164-6.129,4.745-7.909,8.7c-1.779,3.954-0.989,10.281-5.536,13.247C443.922,336.285,441.154,336.681,441.154,336.681z"
				/>
			<path style="fill:#92E3A9;" d="M451.039,338.856c0,0,7.118-8.107,12.259-14.038c5.141-5.932,7.118-10.479,7.316-6.525
				c0.198,3.954,1.78,7.118-2.373,12.259C464.089,335.692,451.039,338.856,451.039,338.856z"/>
			<path style="fill:#92E3A9;" d="M447.283,351.905c0,0-0.198-3.164,11.072-10.479c11.27-7.316,16.015-8.7,14.829-5.734
				c-1.186,2.966-6.129,5.931-11.468,11.27C456.378,352.301,447.283,351.905,447.283,351.905z"/>
			<path style="fill:none;stroke:#263238;stroke-linecap:round;stroke-linejoin:round;stroke-miterlimit:10;" d="M426.795,323.777
				c0,0-2.645-14.184-5.413-24.268c-2.768-10.084-4.548-16.213-4.548-16.213"/>
			<path style="fill:none;stroke:#263238;stroke-linecap:round;stroke-linejoin:round;stroke-miterlimit:10;" d="M441.093,310.731
				c0,0,4.805-15.374,6.387-24.666c1.582-9.293-0.198-16.213-0.989-20.365"/>
			<path style="fill:none;stroke:#263238;stroke-linecap:round;stroke-linejoin:round;stroke-miterlimit:10;" d="M422.933,335.988
				c0,0-2.936-5.239-7.286-10.38c-4.35-5.141-7.711-7.909-9.688-12.852"/>
			<path style="fill:none;stroke:#263238;stroke-linecap:round;stroke-linejoin:round;stroke-miterlimit:10;" d="M441.154,336.681
				c0,0,1.582-9.491,5.338-14.434c3.757-4.943,11.27-12.654,14.236-17.597"/>
			<path style="fill:none;stroke:#263238;stroke-linecap:round;stroke-linejoin:round;stroke-miterlimit:10;" d="M420.324,359.993
				c0,0-6.653-4.332-11.399-6.704"/>
		</g>
		<g>
			<g>
				<path style="fill:#263238;stroke:#263238;stroke-linecap:round;stroke-linejoin:round;stroke-miterlimit:10;" d="
					M458.419,399.846c-0.444-11.998-13.775-19.996-13.775-19.996h-8.434h-3.564h-8.434c0,0-13.331,7.999-13.775,19.996
					c-0.444,11.998,15.108,55.99,15.108,55.99h7.101h3.564h7.1C443.31,455.836,458.863,411.844,458.419,399.846z"/>
				<polygon style="fill:#263238;stroke:#263238;stroke-linecap:round;stroke-linejoin:round;stroke-miterlimit:10;" points="
					447.274,368.053 421.204,368.053 424.212,379.85 444.266,379.85 				"/>
			</g>
		</g>
	</g>
</g>
<g id="Pictures">
	<g>
		<rect x="300.667" y="25.716" style="fill:none;stroke:#263238;stroke-miterlimit:10;" width="107.452" height="121.276"/>
		<rect x="305.603" y="31.287" style="fill:none;stroke:#263238;stroke-miterlimit:10;" width="97.58" height="110.134"/>
		<rect x="331.326" y="60.319" style="fill:none;stroke:#263238;stroke-miterlimit:10;" width="46.134" height="52.069"/>
	</g>
	<g>
		<rect x="417.477" y="101.219" style="fill:none;stroke:#263238;stroke-miterlimit:10;" width="59.658" height="67.333"/>
		<rect x="420.218" y="104.312" style="fill:none;stroke:#263238;stroke-miterlimit:10;" width="54.177" height="61.147"/>
		<rect x="434.499" y="120.431" style="fill:none;stroke:#263238;stroke-miterlimit:10;" width="25.614" height="28.909"/>
	</g>
</g>
<g id="Clock">
	<g>
		
			<ellipse transform="matrix(0.7071 -0.7071 0.7071 0.7071 -22.2098 107.865)" style="fill:none;stroke:#263238;stroke-miterlimit:10;" cx="119.1" cy="80.742" rx="40.088" ry="40.088"/>
		
			<ellipse transform="matrix(0.1652 -0.9863 0.9863 0.1652 19.7865 184.8618)" style="fill:none;stroke:#263238;stroke-miterlimit:10;" cx="119.1" cy="80.742" rx="37.074" ry="37.074"/>
		<path style="fill:none;stroke:#263238;stroke-miterlimit:10;" d="M122.281,80.742c0,1.757-1.425,3.182-3.182,3.182
			c-1.757,0-3.182-1.424-3.182-3.182c0-1.757,1.425-3.182,3.182-3.182C120.857,77.56,122.281,78.985,122.281,80.742z"/>
		<line style="fill:none;stroke:#263238;stroke-miterlimit:10;" x1="115.918" y1="80.742" x2="105.086" y2="80.742"/>
		<line style="fill:none;stroke:#263238;stroke-miterlimit:10;" x1="119.1" y1="83.924" x2="119.1" y2="108.222"/>
	</g>
</g>
<g id="Device">
	<g>
		<g>
			<rect x="115.808" y="272.853" style="fill:#263238;stroke:#263238;stroke-miterlimit:10;" width="33.974" height="2.977"/>
			<rect x="115.808" y="251.271" style="fill:#263238;stroke:#263238;stroke-miterlimit:10;" width="17.395" height="24.558"/>
			<rect x="66.624" y="166.768" style="fill:#263238;stroke:#263238;stroke-miterlimit:10;" width="110.438" height="86.154"/>
			<rect x="69.948" y="166.768" style="fill:#FFFFFF;stroke:#263238;stroke-miterlimit:10;" width="110.438" height="86.154"/>
			<rect x="73.8" y="169.772" style="fill:#EDEDED;stroke:#263238;stroke-miterlimit:10;" width="102.736" height="80.145"/>
		</g>
		<rect x="157.488" y="272.084" style="fill:#FFFFFF;stroke:#263238;stroke-miterlimit:10;" width="85.208" height="3.746"/>
	</g>
</g>
<g id="Table">
	<g>
		<path style="fill:#FFFFFF;stroke:#263238;stroke-miterlimit:10;" d="M75.007,282.143l-0.13,6.39l-3.31,163.79
			c-0.04,1.95-1.63,3.51-3.58,3.51c-1.95,0-3.55-1.56-3.58-3.51l-3.32-163.79l-0.13-6.39H75.007z"/>
		<polygon style="fill:#263238;stroke:#263238;stroke-miterlimit:10;" points="75.007,282.143 74.877,288.533 61.087,288.533 
			60.957,282.143 		"/>
		<path style="fill:#FFFFFF;stroke:#263238;stroke-miterlimit:10;" d="M384.832,455.836L384.832,455.836
			c-1.951,0-3.544-1.561-3.583-3.511l-3.441-170.177h14.048l-3.441,170.177C388.376,454.276,386.783,455.836,384.832,455.836z"/>
		<polygon style="fill:#263238;stroke:#263238;stroke-miterlimit:10;" points="377.937,288.533 391.727,288.533 391.856,282.148 
			377.808,282.148 		"/>
		<rect x="52.66" y="275.762" style="fill:#FFFFFF;stroke:#263238;stroke-miterlimit:10;" width="346.221" height="8.301"/>
	</g>
</g>
<g id="Chair">
	<g>
		<rect x="248.661" y="352.044" style="fill:#263238;stroke:#263238;stroke-miterlimit:10;" width="17.445" height="66.907"/>
		<polygon style="fill:#263238;stroke:#263238;stroke-miterlimit:10;" points="184.696,314.894 191.896,340.894 195.239,336.008 
			186.753,314.637 		"/>
		<path style="fill:#92E3A9;stroke:#263238;stroke-miterlimit:10;" d="M197.302,299.566H186.46c-1.459,0-2.885,0.448-4.061,1.313
			c-1.515,1.115-9.546,10.867-11.445,14.092c-0.786,1.334,0.186,3.021,1.734,3.021h10.728c0.709,0,1.413-0.114,2.086-0.339l0,0
			c1.343-0.448,2.506-1.315,3.318-2.475l9.51-12.872C198.33,302.307,199.358,300.937,197.302,299.566z"/>
		<polygon style="fill:#263238;stroke:#263238;stroke-miterlimit:10;" points="325.995,314.894 318.795,340.894 315.452,336.008 
			323.938,314.637 		"/>
		<path style="fill:#92E3A9;stroke:#263238;stroke-miterlimit:10;" d="M313.389,299.566h10.842c1.459,0,2.885,0.448,4.061,1.313
			c1.515,1.115,9.546,10.867,11.445,14.092c0.786,1.334-0.186,3.021-1.734,3.021h-10.728c-0.709,0-1.413-0.114-2.086-0.339l0,0
			c-1.343-0.448-2.506-1.315-3.318-2.475l-9.51-12.872C312.361,302.307,311.333,300.937,313.389,299.566z"/>
		<path style="fill:#92E3A9;stroke:#263238;stroke-miterlimit:10;" d="M286.838,248.372h-62.483c-13.531,0-24.5,10.969-24.5,24.5
			v61.745h111.483v-61.745C311.338,259.341,300.369,248.372,286.838,248.372z"/>
		<path style="fill:#92E3A9;stroke:#263238;stroke-miterlimit:10;" d="M314.616,347.493H196.738c-4.106,0-6.784-4.311-4.964-7.992
			l8.223-6.836c1.02-2.062,3.121-3.367,5.421-3.367h100.551c2.3,0,4.402,1.305,5.421,3.367l8.19,6.836
			C321.4,343.181,318.721,347.493,314.616,347.493z"/>
		<path style="fill:#263238;stroke:#263238;stroke-miterlimit:10;" d="M200.117,347.114c0,0,21.996,6.447,55.749,7.585
			c33.753,1.138,58.749-7.206,58.749-7.206L200.117,347.114z"/>
		
			<line style="fill:none;stroke:#263238;stroke-width:2;stroke-miterlimit:10;" x1="251.695" y1="353.561" x2="211.495" y2="359.25"/>
		<g>
			<path style="fill:#263238;" d="M214.291,365.074h-5.364c-0.604,0-1.071-0.529-0.997-1.128l0.632-5.109
				c0.062-0.503,0.49-0.881,0.997-0.881h4.099c0.507,0,0.935,0.378,0.997,0.881l0.632,5.109
				C215.362,364.545,214.895,365.074,214.291,365.074z"/>
			<path style="fill:#263238;" d="M214.291,365.845h-5.364c-0.508,0-0.994-0.218-1.33-0.6c-0.337-0.381-0.495-0.889-0.432-1.395
				l0.633-5.109c0.11-0.888,0.868-1.558,1.762-1.558h4.1c0.894,0,1.652,0.67,1.762,1.558l0.633,5.108
				c0.063,0.506-0.095,1.014-0.432,1.395C215.284,365.627,214.799,365.845,214.291,365.845z M209.559,358.727
				c-0.118,0-0.217,0.088-0.231,0.205l-0.633,5.108c-0.011,0.091,0.031,0.154,0.057,0.184c0.026,0.029,0.083,0.078,0.175,0.078
				h5.364c0.092,0,0.149-0.049,0.175-0.078c0.026-0.03,0.069-0.093,0.057-0.185l-0.633-5.108c-0.014-0.117-0.114-0.205-0.231-0.205
				H209.559z"/>
		</g>
		<g>
			<path style="fill:#263238;" d="M193.181,447.608h-6.171v-7.386c0-13.431,10.926-24.357,24.357-24.357h37.294v6.171h-37.294
				c-10.028,0-18.186,8.158-18.186,18.186V447.608z"/>
		</g>
		<g>
			<path style="fill:#263238;" d="M319.889,447.608h6.171v-7.386c0-13.431-10.927-24.357-24.357-24.357h-37.293v6.171h37.293
				c10.028,0,18.186,8.158,18.186,18.186V447.608z"/>
		</g>
		<path style="fill:#6E6E6E;stroke:#263238;stroke-miterlimit:10;" d="M201.667,449.408c0-3.55-2.878-6.429-6.428-6.429
			s-6.429,2.878-6.429,6.429c0,3.55,2.878,6.428,6.429,6.428S201.667,452.958,201.667,449.408z"/>
		<path style="fill:#6E6E6E;stroke:#263238;stroke-miterlimit:10;" d="M324.581,449.408c0-3.55-2.878-6.429-6.428-6.429
			c-3.55,0-6.429,2.878-6.429,6.429c0,3.55,2.878,6.428,6.429,6.428C321.703,455.836,324.581,452.958,324.581,449.408z"/>
		<rect x="253.292" y="416.749" style="fill:#263238;" width="7.758" height="31.032"/>
		<path style="fill:#6E6E6E;stroke:#263238;stroke-miterlimit:10;" d="M255.916,455.54h2.848c1.449,0,2.624-1.175,2.624-2.624
			v-6.896c0-1.449-1.174-2.624-2.624-2.624h-2.848c-1.449,0-2.624,1.175-2.624,2.624v6.896
			C253.292,454.365,254.467,455.54,255.916,455.54z"/>
	</g>
</g>
<g id="Character">
	<g>
		<g>
			<path style="fill:#C4C4C4;stroke:#263238;stroke-miterlimit:10;" d="M145.68,245.727c0,0-3.442-2.78-4.898-5.428
				c-1.456-2.648-2.78-2.648-4.633-3.442s-8.738-4.104-10.723-6.487c-1.986-2.383-4.898-1.853-4.898-0.397
				c0,1.456,3.972,6.487,5.693,7.546c1.721,1.059,3.839,2.78,1.853,3.707c-1.986,0.927-4.898,1.986-6.487,2.383
				c-1.589,0.397-6.619-0.794-8.076-0.794c-1.456,0-0.397,2.251,3.442,7.149c3.839,4.898,9.929,7.546,14.165,6.752
				c4.236-0.794,9.002-1.059,9.002-1.059l6.884,3.442L145.68,245.727z"/>
			<g>
				<path style="fill:#C4C4C4;stroke:#263238;stroke-miterlimit:10;" d="M122.116,249.566c0,0,0.132-5.56,0.132-7.546
					c0-1.986,1.324-7.943,0.794-8.87c-0.529-0.927-2.78,0-2.78,0s1.191-4.369,0.794-4.633c-0.397-0.265-2.118,0.397-2.912,0.794
					c-0.794,0.397-2.383,0-2.912,0.662c-0.53,0.662-5.163,8.605-5.163,10.723c0,2.118,2.78,6.487,5.56,8.473
					C118.409,251.154,121.719,253.67,122.116,249.566z"/>
				<path style="fill:#C4C4C4;stroke:#263238;stroke-miterlimit:10;" d="M120.262,233.15c0,0-2.912,7.546-3.045,12.841"/>
				<path style="fill:#C4C4C4;stroke:#263238;stroke-miterlimit:10;" d="M118.144,229.311c0,0-5.825,9.796-5.428,13.371
					c0.397,3.574,1.721,4.369,1.721,4.369"/>
			</g>
			<path style="fill:#C4C4C4;stroke:#263238;stroke-miterlimit:10;" d="M140.915,248.904c0,0-3.839-2.648-6.619-2.383
				c-2.78,0.265-10.061,3.839-10.061,3.839s-7.678-5.428-8.738-5.825c-1.059-0.397-2.912-1.059-2.912,0.132
				c0,1.191,2.912,2.383,4.633,4.633c1.721,2.251,5.56,5.163,6.884,5.428c1.324,0.265,4.236,1.456,4.236,1.456"/>
		</g>
		<polygon style="fill:#FFFFFF;stroke:#263238;stroke-miterlimit:10;" points="149.557,245.947 144.238,244.51 144.813,260.182 
			148.839,261.332 		"/>
		<path style="fill:#92E3A9;stroke:#263238;stroke-miterlimit:10;" d="M245.124,209.396l-15.428,6.171v91.799
			c0,0,14.4-2.314,26.229-2.314s23.657,2.314,23.657,2.314l2.571-95.914l-9.771-2.571L245.124,209.396z"/>
		<path style="fill:#C4C4C4;stroke:#263238;stroke-miterlimit:10;" d="M272.38,208.88c0,0-12.86,16.2-14.4,16.46
			c-1.54,0.26-14.4-14.4-14.4-14.4l-0.03-2.24l-0.23-16.02l2.79,0.73l24.73,6.47L272.38,208.88z"/>
		<polygon style="fill:#263238;stroke:#263238;stroke-miterlimit:10;" points="256.6,206.9 243.55,208.7 243.32,192.68 
			246.11,193.41 		"/>
		<g>
			<path style="fill:#C4C4C4;stroke:#263238;stroke-miterlimit:10;" d="M247.105,150.142c0,0-11.129,4.917-11.388,11.387
				c-0.259,6.47,1.553,19.152,1.553,19.152s-3.106-2.847-3.106,1.035s0.259,6.988,1.553,8.282c1.294,1.294,4.917,1.812,4.917,1.812
				s2.847,5.694,3.623,8.282c0.776,2.588,7.247,7.764,12.164,9.576c4.917,1.812,10.093-2.329,11.646-3.365
				c1.553-1.035,5.66-5.185,6.177-7.514c0.518-2.329,2.881-8.014,2.881-8.014s3.882-1.553,4.917-6.47
				c1.035-4.917-3.623-5.435-3.623-5.435s-0.259-17.081-2.588-21.481c-2.329-4.4-9.058-6.729-15.011-8.541
				C254.869,147.036,247.105,150.142,247.105,150.142z"/>
			<path style="fill:none;stroke:#263238;stroke-linecap:round;stroke-linejoin:round;stroke-miterlimit:10;" d="M251.763,193.621
				c0,0,6.211,5.694,14.234-0.518"/>
			<path style="fill:none;stroke:#263238;stroke-linecap:round;stroke-linejoin:round;stroke-miterlimit:10;" d="M254.092,185.857
				c0,0,1.812,2.329,4.658,2.07c2.847-0.259,3.882-2.847,3.882-2.847"/>
			<path style="fill:none;stroke:#263238;stroke-linecap:round;stroke-linejoin:round;stroke-miterlimit:10;" d="M243.999,177.316
				c0,0,3.882-2.847,6.729-0.776"/>
			<path style="fill:none;stroke:#263238;stroke-linecap:round;stroke-linejoin:round;stroke-miterlimit:10;" d="M264.703,175.764
				c0,0,3.882-1.553,7.505,0.776"/>
			<path style="fill:#263238;stroke:#263238;stroke-miterlimit:10;" d="M260.821,148.848c-5.953-1.812-13.717,1.294-13.717,1.294
				s-11.129,4.917-11.388,11.387c-0.259,6.47,1.553,19.152,1.553,19.152s2.588-1.035,2.329-4.141c-0.259-3.106-1.812-9.835,0-15.011
				s5.176-8.541,8.282-8.541c3.106,0,7.764,0.776,11.388,1.035c3.623,0.259,4.658-1.294,8.541-1.035
				c3.882,0.259,5.694,6.729,5.435,9.576c-0.259,2.847,0,4.141,1.035,6.729c1.035,2.588,2.588,8.282,2.588,9.317
				s1.553,0.259,1.553,0.259s-0.259-17.081-2.588-21.481C273.503,152.989,266.774,150.659,260.821,148.848z"/>
			<g>
				<path style="fill:none;stroke:#263238;stroke-width:2;stroke-linecap:round;stroke-linejoin:round;stroke-miterlimit:10;" d="
					M255.386,169.294c0,0-16.305,1.035-18.117,2.847c-1.812,1.812,2.329,9.576,4.917,10.352c2.588,0.776,9.835,0.776,11.646-0.776
					c1.812-1.553,2.727-9.902,2.727-9.902h1.633l0.04-2.52H255.386z"/>
				<path style="fill:none;stroke:#263238;stroke-width:2;stroke-linecap:round;stroke-linejoin:round;stroke-miterlimit:10;" d="
					M259.612,169.294c0,0,16.305,1.035,18.116,2.847c1.812,1.812-2.329,9.576-4.917,10.352c-2.588,0.776-9.835,0.776-11.646-0.776
					c-1.812-1.553-2.727-9.902-2.727-9.902h-1.633l-0.04-2.52H259.612z"/>
			</g>
			<path style="fill:none;stroke:#263238;stroke-width:2;stroke-linecap:round;stroke-linejoin:round;stroke-miterlimit:10;" d="
				M242.038,168.896c0,0,4.436-3.664,11.378-1.543"/>
			<path style="fill:none;stroke:#263238;stroke-width:2;stroke-linecap:round;stroke-linejoin:round;stroke-miterlimit:10;" d="
				M270.774,168.896c0,0-4.436-3.664-11.379-1.543"/>
		</g>
		<path style="fill:#263238;stroke:#263238;stroke-miterlimit:10;" d="M243.581,209.396c0,0,1.286,28.028-1.543,58.371
			c-2.829,30.343-8.229,42.943-8.229,42.943s-10.8,2.829-11.571,2.829c-0.771,0-11.828-0.514-11.828-0.514l-0.257-52.971
			c0,0-23.4,7.971-30.086,8.743c-6.686,0.771-33.557-5.529-33.557-5.529l2.186-20.7c0,0,29.571,4.886,31.114,4.886
			c1.543,0,23.657-10.8,23.657-10.8s4.371-18.257,8.743-20.828S243.581,209.396,243.581,209.396z"/>
		<g>
			<path style="fill:#C4C4C4;stroke:#263238;stroke-miterlimit:10;" d="M360.947,245.727c0,0,3.442-2.78,4.898-5.428
				c1.456-2.648,2.78-2.648,4.634-3.442c1.853-0.794,8.737-4.104,10.723-6.487c1.986-2.383,4.898-1.853,4.898-0.397
				c0,1.456-3.972,6.487-5.693,7.546c-1.721,1.059-3.839,2.78-1.853,3.707c1.986,0.927,4.898,1.986,6.487,2.383
				c1.589,0.397,6.619-0.794,8.076-0.794c1.456,0,0.397,2.251-3.442,7.149c-3.839,4.898-9.929,7.546-14.165,6.752
				c-4.236-0.794-9.002-1.059-9.002-1.059l-6.884,3.442L360.947,245.727z"/>
			<g>
				<path style="fill:#C4C4C4;stroke:#263238;stroke-miterlimit:10;" d="M384.511,249.566c0,0-0.132-5.56-0.132-7.546
					c0-1.986-1.324-7.943-0.794-8.87c0.53-0.927,2.78,0,2.78,0s-1.191-4.369-0.794-4.633c0.397-0.265,2.118,0.397,2.913,0.794
					c0.794,0.397,2.383,0,2.913,0.662c0.53,0.662,5.163,8.605,5.163,10.723c0,2.118-2.78,6.487-5.56,8.473
					C388.218,251.154,384.908,253.67,384.511,249.566z"/>
				<path style="fill:#C4C4C4;stroke:#263238;stroke-miterlimit:10;" d="M386.365,233.15c0,0,2.913,7.546,3.045,12.841"/>
				<path style="fill:#C4C4C4;stroke:#263238;stroke-miterlimit:10;" d="M388.483,229.311c0,0,5.825,9.796,5.428,13.371
					c-0.397,3.574-1.721,4.369-1.721,4.369"/>
			</g>
			<path style="fill:#C4C4C4;stroke:#263238;stroke-miterlimit:10;" d="M365.712,248.904c0,0,3.839-2.648,6.619-2.383
				c2.78,0.265,10.061,3.839,10.061,3.839s7.678-5.428,8.737-5.825c1.059-0.397,2.913-1.059,2.913,0.132
				c0,1.191-2.913,2.383-4.634,4.633c-1.721,2.251-5.56,5.163-6.884,5.428c-1.324,0.265-4.236,1.456-4.236,1.456"/>
		</g>
		<polygon style="fill:#FFFFFF;stroke:#263238;stroke-miterlimit:10;" points="357.07,245.947 362.39,244.51 361.814,260.182 
			357.788,261.332 		"/>
		<path style="fill:#263238;stroke:#263238;stroke-miterlimit:10;" d="M272.415,209.396c0,0-1.286,28.028,1.543,58.371
			c2.829,30.343,8.229,42.943,8.229,42.943s10.8,2.829,11.571,2.829c0.772,0,11.829-0.514,11.829-0.514l0.257-52.971
			c0,0,23.4,7.971,30.086,8.743c6.686,0.771,22.991-6.786,22.991-6.786l0.118-17.129c0,0-21.308,2.571-22.851,2.571
			c-1.543,0-23.657-10.8-23.657-10.8s-4.371-18.257-8.743-20.828S272.415,209.396,272.415,209.396z"/>
		<polyline style="fill:none;stroke:#263238;stroke-miterlimit:10;" points="244.738,235.624 257.467,227.91 270.967,239.096 		"/>
		<path style="fill:#6E6E6E;stroke:#263238;stroke-miterlimit:10;" d="M197.747,300.074c0,0,11.694,24.815,31.09,32.231
			c19.396,7.416,30.519,9.127,47.348,5.419c16.828-3.708,38.506-19.11,42.499-45.066c0,0-18.54,15.402-36.509,20.822
			c-17.969,5.419-47.063-0.57-59.898-6.56C209.442,300.93,195.18,291.803,197.747,300.074z"/>
		<path style="fill:#6E6E6E;stroke:#263238;stroke-miterlimit:10;" d="M288.324,305.824c0,0-18.129-3.471-33.171-3.857
			c-15.043-0.386-34.328,11.571-34.328,11.571s32.4,19.671,38.186,21.214c5.786,1.543,23.914-13.886,28.157-18.514
			C291.409,311.61,291.409,305.824,288.324,305.824z"/>
		<g>
			<path style="fill:#6E6E6E;stroke:#263238;stroke-miterlimit:10;" d="M269.038,325.223c0,0-13.886-4.243-29.314-23.529
				c-15.428-19.286-34.328-44.357-40.885-51.3c-6.557-6.943-20.828,0.386-20.057,16.586c0.771,16.2,20.057,39.728,40.114,52.457
				c20.057,12.728,44.743,20.057,50.914,21.6c6.171,1.543,21.986,9.257,29.7,8.1c7.714-1.157,12.728-17.357,6.943-20.443
				c-5.786-3.086-25.457,0.386-32.014-1.543C267.881,325.223,269.038,325.223,269.038,325.223z"/>
			<path style="fill:#263238;stroke:#263238;stroke-miterlimit:10;" d="M306.452,328.694c-5.786-3.086-25.457,0.386-32.014-1.543
				c-0.287-0.084-0.554-0.164-0.812-0.241c-1.722,1.93-3.431,4.902-3.431,9.112c0,1.93,0.482,3.779,1.236,5.486
				c6.979,2.227,20.967,8.695,28.079,7.629C307.224,347.98,312.238,331.78,306.452,328.694z"/>
		</g>
		<g>
			<path style="fill:#6E6E6E;stroke:#263238;stroke-miterlimit:10;" d="M240.661,326.364c0,0,13.886-4.243,29.314-23.528
				c15.428-19.286,34.328-44.357,40.885-51.3c6.557-6.943,20.828,0.386,20.057,16.586c-0.771,16.2-20.057,39.728-40.114,52.457
				c-20.057,12.728-44.743,20.057-50.914,21.6c-6.171,1.543-21.985,9.257-29.7,8.1c-7.714-1.157-12.729-17.357-6.943-20.443
				c5.786-3.086,25.457,0.386,32.014-1.543C241.818,326.364,240.661,326.364,240.661,326.364z"/>
			<path style="fill:#263238;stroke:#263238;stroke-miterlimit:10;" d="M203.247,329.835c5.786-3.086,25.457,0.386,32.014-1.543
				c0.287-0.084,0.554-0.164,0.812-0.241c1.722,1.93,3.431,4.903,3.431,9.112c0,1.93-0.482,3.779-1.236,5.486
				c-6.979,2.227-20.967,8.695-28.079,7.629C202.476,349.121,197.461,332.921,203.247,329.835z"/>
		</g>
		<g>
			<line style="fill:none;stroke:#263238;stroke-miterlimit:10;" x1="245.895" y1="275.738" x2="263.638" y2="287.31"/>
			<line style="fill:none;stroke:#263238;stroke-miterlimit:10;" x1="255.538" y1="286.153" x2="265.181" y2="291.167"/>
		</g>
	</g>
</g>
<g id="Floor">
	<line style="fill:#FFFFFF;stroke:#263238;stroke-miterlimit:10;" x1="15.88" y1="455.836" x2="482.473" y2="455.836"/>
</g>
</svg>
