<svg width="171.460009765625px" height="192.839990234375px" xmlns="http://www.w3.org/2000/svg" viewBox="164.2699951171875 -21.419995117187497 171.460009765625 192.839990234375" style="background: none;" preserveAspectRatio="xMidYMid"><defs><linearGradient id="editing-shiny-gradient" x1="0.8535533905932737" x2="0.14644660940672627" y1="0.1464466094067262" y2="0.8535533905932737" gradientUnits="objectBoundingBox"><stop offset="0.0" stop-color="#00d8ff"></stop><stop offset="0.5" stop-color="#222222"></stop><stop offset="1.0" stop-color="#00d8ff"></stop></linearGradient><linearGradient id="editing-shiny-gradient2" x1="0" x2="0" y1="0" y2="1"><stop offset="0.2" stop-color="#fff" stop-opacity="0.8"></stop><stop offset="0.8" stop-color="#fff" stop-opacity="0"></stop></linearGradient><filter id="editing-shiny2" x="-100%" y="-100%" width="300%" height="300%"><feMorphology operator="erode" radius="2"></feMorphology></filter><filter id="editing-shiny" x="-100%" y="-100%" width="300%" height="300%"><feFlood flood-color="#fff" result="flood"></feFlood><feConvolveMatrix in="SourceGraphic" result="conv" order="8,8" divisor="1" kernelMatrix="0 0 0 0 0 0 0 0 0 0 0 1 1 0 0 0 0 0 0 1 1 0 0 0 0 0 1 0 0 1 0 0 0 0 1 0 0 1 0 0 0 1 0 0 0 0 1 0 0 1 1 0 0 1 1 0 0 0 0 1 1 0 0 0 "></feConvolveMatrix><feOffset dx="0" dy="4" in="conv" result="offset"></feOffset><feComposite operator="in" in="flood" in2="offset" result="comp"></feComposite><feGaussianBlur in="offset" stdDeviation="3" result="shadow"></feGaussianBlur><feColorMatrix in="shadow" type="matrix" values="0.7 0 0 0 0  0 0.7 0 0 0  0 0 0.7 0 0  0 0 0 0.3 0" result="dark-shadow"></feColorMatrix><feOffset dx="0" dy="4" in="dark-shadow" result="offset-shadow"></feOffset><feOffset dx="0" dy="2" in="conv" result="offset-2"></feOffset><feComposite operator="out" in="offset" in2="offset-2" result="edge-diff"></feComposite><feGaussianBlur in="edge-diff" stdDeviation="1" result="edge-blur"></feGaussianBlur><feColorMatrix in="edge-blur" result="edge-shadow" type="matrix" values="0 0 0 0 0  0 0 0 0 0  0 0 0 0 0  0 0 0 0.5 0"></feColorMatrix><feComposite operator="in" in="edge-shadow" in2="offset" result="edge-shadow-in"></feComposite><feOffset dx="0" dy="1" in="edge-shadow-in" result="edge-shadow-final"></feOffset><feMerge result="out"><feMergeNode in="offset-shadow"></feMergeNode><feMergeNode in="comp"></feMergeNode><feMergeNode in="edge-shadow-final"></feMergeNode><feMergeNode in="SourceGraphic"></feMergeNode></feMerge></filter></defs><g filter="url(#editing-shiny)"><g transform="translate(197.23647677898407, 103.26500034332275)"><path d="M23.84-30.81L23.84-30.81L23.19-19.75L23.19-19.75Q22.53-19 22.53-17.22L22.53-17.22L22.53-16.09L21.91-16.09L22.53-15.41L22.53-15.41Q22.53-9.78 21.25-6.69L21.25-6.69L21.91-6L21.25-6L21.25-6Q21.25-5.13 20.75-4.45L20.75-4.45L20.75-4.45Q20.25-3.78 20.11-3.44L20.11-3.44L20.11-3.44Q19.97-3.09 19.92-1.44L19.92-1.44L19.92-1.44Q19.88 0.22 19.44 1.19L19.44 1.19L20.06 1.97L19.44 2.72L19.44 2.72Q18.72 2.72 18.72 1.19L18.72 1.19L18.16 1.19L18.16 1.19Q17.53 0.50 16.72 0.50L16.72 0.50L15.63 0.56L15.63 1.97L13.78 1.97L13.16 1.19L12.50 1.19L12.50 0.56L9.59 0.56L9.59 1.19L8.50-0.19L8.50 0.56L7.94-0.19L7.94-0.19Q4.81-0.19 3.69-1L3.69-1L3.69-1Q2.47-1.94 1.94-3.03L1.94-3.03L0.91-5.06L0.91-5.06Q0.44-6 0.06-6.69L0.06-6.69L0.66-7.44L0.66-7.44Q0.66-8.16-0.27-9.89L-0.27-9.89L-0.27-9.89Q-1.19-11.63-1.19-13.25L-1.19-13.25L-1.84-13.25L0.06-14.69L0.06-14.69Q0.94-14.69 2.83-14.98L2.83-14.98L2.83-14.98Q4.72-15.28 5.56-15.56L5.56-15.56L4.47-14.69L5.06-14.69L5.06-14.69Q5.50-14.69 5.97-15.39L5.97-15.39L5.97-15.39Q6.44-16.09 6.81-16.09L6.81-16.09L7.38-16.84L7.94-16.84L7.94-16.09L7.38-15.41L7.94-15.41L7.94-12.47L7.94-12.47Q8.63-11.63 8.88-9.94L8.88-9.94L8.88-9.94Q9.31-6.94 10.78-6.69L10.78-6.69L12.50-8.13L12.50-10.31L13.16-11.09L12.50-11.78L12.50-19L13.16-19.75L11.88-21.13L11.88-35.69L11.31-35.69L11.31-35.69Q11.31-36.69 10.73-38.56L10.73-38.56L10.73-38.56Q10.16-40.44 10.16-41.47L10.16-41.47L9.09-43.66L9.09-43.66Q9.09-44.56 7.94-45.50L7.94-45.50L7.94-46.50L7.38-46.50L7.38-46.50Q8.22-47.25 8.63-47.25L8.63-47.25L8.63-47.25Q9.59-47.25 9.59-46.50L9.59-46.50L10.16-46.50L10.78-47.25L15.03-47.25L15.03-47.25Q16.03-47.25 21.44-46.06L21.44-46.06L21.44-46.06Q26.84-44.88 28.19-44.34L28.19-44.34L28.19-44.34Q25.88-42.97 25.66-42.91L25.66-42.91L25.19-42.91L25.75-40.88L25.66-39.28L25.66-39.28Q25.34-39.25 25.06-38L25.06-38L25.06-38Q24.16-34.19 23.19-34.19L23.19-34.19L23.19-34.19Q23.84-33.47 23.84-30.81ZM53.72 0.34L53.72 0.34L53.72 1.09L53.09 1.09L52.31 0.38L52.31 0.38Q52.03 1.19 51.25 1.19L51.25 1.19L51.25 1.88L50.84 1.81L49.97 2.69L49.34 2.13L49.34 3.41L48.47 4.19L48.47 4.19Q46.41 3.63 45.22 3.63L45.22 3.63L45.22 3.63Q44.63 3.63 44.20 1.61L44.20 1.61L44.20 1.61Q43.78-0.41 43.75-0.41L43.75-0.41L43.75-0.41Q43.22-0.41 42.84 0.80L42.84 0.80L42.84 0.80Q42.47 2 42.19 2.28L42.19 2.28L42.19 2.28Q41.38 2.22 40.94 0.44L40.94 0.44L40.94 0.44Q40.75-0.25 40.28-0.80L40.28-0.80L40.28-0.80Q39.81-1.34 39.31-1.34L39.31-1.34L39.31-1.34Q38.81-1.34 36.72-0.50L36.72-0.50L36.72-0.50Q36.63-1.47 35.70-2.73L35.70-2.73L35.70-2.73Q34.78-4 34.78-5.31L34.78-5.31L34.84-5.31L34.84-5.31Q34.84-6.28 34.48-8.59L34.48-8.59L34.48-8.59Q34.13-10.91 33.84-11.78L33.84-11.78L33.84-11.78Q33.19-13.72 32.75-30.66L32.75-30.66L32.75-31.34L32.09-31.34L32.09-32.06L32.75-31.34L32.56-32.81L32.31-32.69L32.09-32.75L32.75-33.50L32.09-33.50L32.09-34.28L32.22-34.28L32.09-35L32.38-34.94L32.38-34.94Q32.81-35.75 32.81-36.63L32.81-36.63L32.75-37.13L32.16-37.13L32.16-37.13Q32.56-37.28 33.44-39.16L33.44-39.16L33.44-39.16Q34.31-41.03 35.33-42.33L35.33-42.33L35.33-42.33Q36.34-43.63 37.56-44.72L37.56-44.72L37.56-44.72Q40.44-47.25 45.22-47.25L45.22-47.25L45.22-46.56L45.78-47.25L45.78-47.25Q46.34-47.25 47.52-46.91L47.52-46.91L47.52-46.91Q48.69-46.56 49.34-46.56L49.34-46.56L49.34-47.25L49.34-47.25Q51.78-47.25 55.72-42.97L55.72-42.97L56.38-43.66L56.44-43.09L55.84-42.97L57-42.19L56.44-41.53L56.44-41.53Q56.63-41.16 57.27-40.61L57.27-40.61L57.27-40.61Q57.91-40.06 58.31-40.06L58.31-40.06L58.47-40.06L60.13-37.88L59.66-37.88L59.66-37.88Q59.47-37.06 59.47-35.28L59.47-35.28L59.47-35.28Q59.47-33.50 59.53-32.75L59.53-32.75L60.13-32.06L60.13-32.06Q60.13-28.47 59.53-26.31L59.53-26.31L60.13-26.31L60.13-26.31Q59.41-14.78 58.78-13.25L58.78-13.25L58.78-13.25Q58.59-12.81 58.05-11.63L58.05-11.63L58.05-11.63Q57.50-10.44 57.19-9.69L57.19-9.69L57.19-9.69Q56.25-7.53 56.25-6L56.25-6L56.88-5.31L56.88-5.31Q56.19-5.31 55.70-4.34L55.70-4.34L55.70-4.34Q55.22-3.38 55.06-2.41L55.06-2.41L55.06-2.41Q54.84-2.25 54.67-2.09L54.67-2.09L54.67-2.09Q54.50-1.94 54.36-1.81L54.36-1.81L54.36-1.81Q54.22-1.69 54.13-1.50L54.13-1.50L54.13-1.50Q54.03-1.31 53.95-1.23L53.95-1.23L53.95-1.23Q53.88-1.16 53.83-0.91L53.83-0.91L53.83-0.91Q53.78-0.66 53.75-0.59L53.75-0.59L53.75-0.59Q53.72-0.41 53.72 0.34ZM44.66-6L45.22-6L45.22-6Q47.50-6 47.50-10.06L47.50-10.06L47.50-10.06Q47.50-10.75 47.44-11.09L47.44-11.09L48.06-11.09L48.06-12.56L48.69-12.56L48.06-13.25L48.06-14.03L48.06-14.03Q48.06-14.69 48.69-15.41L48.69-15.41L48.69-17.63L48.69-17.63Q48.69-19.09 48.06-19.75L48.06-19.75L48.06-21.34L48.06-21.34Q48.06-24.25 47.38-25.66L47.38-25.66L47.38-25.66Q46.69-27.06 45.75-27.06L45.75-27.06L44.66-27.06L44.66-26.31L44.06-26.31L44.06-26.31Q42.31-23.94 42.31-21.22L42.31-21.22L42.31-15.41L42.31-15.41Q42.31-14.91 42.66-14.69L42.66-14.69L42.31-14.69L42.31-12.56L42.31-12.56Q42.31-11.75 42.97-11.09L42.97-11.09L42.97-11.09Q42.97-10 43.50-8.41L43.50-8.41L43.50-8.41Q44.03-6.81 44.66-6L44.66-6ZM32.22-31L32.75-30.66L32.09-30.66L32.22-31ZM91.34 1.13L91.34 1.13L91.50 8.44L90.84 9.19L90.84 6.28L88.97 6.28L88.97 7.75L88.31 7.75L88.31 7.75Q87.69 7.13 87.69 5.50L87.69 5.50L83.31 5.50L82.69 4.81L82.75 2.13L82.75 2.13Q82.75-0.06 82.09-1.72L82.09-1.72L82.69-0.97L82.69-6.09L82.09-6.09L81.44-14.13L81.44-14.75L81-15.25L81.44-15.41L81.44-16.91L80.91-17.63L81.44-19.75L81.44-19.75Q80.88-20.56 80.88-21.56L80.88-21.56L80.88-21.56Q80.88-22.56 80.91-22.69L80.91-22.69L80.91-22.69Q80.31-23.44 80.31-25.03L80.31-25.03L80.31-26.09L80.31-26.09Q80-25.41 76.72-24.50L76.72-24.50L76.72-24.50Q73.44-23.59 73-23.38L73-23.38L72.44-24.16L72.44-23.38L71.19-22L71.19-22Q71.19-27.94 70.13-32.59L70.13-32.59L70.13-32.59Q68.16-41.19 64.31-44.34L64.31-44.34L64.31-44.34Q67.13-44.34 69.34-45.88L69.34-45.88L69.34-45.88Q69.69-45.81 70.70-45.81L70.70-45.81L70.70-45.81Q71.72-45.81 74.30-46.58L74.30-46.58L74.30-46.58Q76.88-47.34 78.09-47.34L78.09-47.34L91.50-47.34L91.50-47.34Q94.56-47.34 98.92-46.34L98.92-46.34L98.92-46.34Q103.28-45.34 104.72-45.09L104.72-45.09L104.72-45.09Q104.72-44.72 102.95-41.39L102.95-41.39L102.95-41.39Q101.19-38.06 100.94-37.88L100.94-37.88L100.38-37.88L100.38-37.13L100.94-37.13L100.94-37.13Q100.94-31.91 99.72-23.38L99.72-23.38L99.09-23.38L97.84-24.84L97.84-24.84Q97-24.66 96.34-24.66L96.34-24.66L96.34-24.66Q94.56-24.66 92.06-26.31L92.06-26.31L91.50-26.31L92.06-24.16L91.50-22.69L91.50-22.69Q92.13-21.94 92.13-19.66L92.13-19.66L92.13-19.66Q92.13-17.38 92.09-16.16L92.09-16.16L92.09-16.16Q92.06-14.94 92.06-14.75L92.06-14.75L92.06-14.75Q92.03-14.75 91.91-14.91L91.91-14.91L91.91-14.91Q91.78-14.91 91.78-14.69L91.78-14.69L92.19-12.69L91.56-8.03L91.56-8.03Q91.56-6.88 92.06-6.09L92.06-6.09L92.06-6.09Q91.34-3.19 91.34 1.13Z" fill="url(#editing-shiny-gradient)"></path></g></g><g filter="url(#editing-shiny2)"><g transform="translate(197.5599707365036, 103.2649974822998)"><path d="M23.84-30.81L23.84-30.81L23.19-19.75L23.19-19.75Q22.53-19 22.53-17.22L22.53-17.22L22.53-16.09L21.91-16.09L22.53-15.41L22.53-15.41Q22.53-9.78 21.25-6.69L21.25-6.69L21.91-6L21.25-6L21.25-6Q21.25-5.13 20.75-4.45L20.75-4.45L20.75-4.45Q20.25-3.78 20.11-3.44L20.11-3.44L20.11-3.44Q19.97-3.09 19.92-1.44L19.92-1.44L19.92-1.44Q19.88 0.22 19.44 1.19L19.44 1.19L20.06 1.97L19.44 2.72L19.44 2.72Q18.72 2.72 18.72 1.19L18.72 1.19L18.16 1.19L18.16 1.19Q17.53 0.50 16.72 0.50L16.72 0.50L15.63 0.56L15.63 1.97L13.78 1.97L13.16 1.19L12.50 1.19L12.50 0.56L9.59 0.56L9.59 1.19L8.50-0.19L8.50 0.56L7.94-0.19L7.94-0.19Q4.81-0.19 3.69-1L3.69-1L3.69-1Q2.47-1.94 1.94-3.03L1.94-3.03L0.91-5.06L0.91-5.06Q0.44-6 0.06-6.69L0.06-6.69L0.66-7.44L0.66-7.44Q0.66-8.16-0.27-9.89L-0.27-9.89L-0.27-9.89Q-1.19-11.63-1.19-13.25L-1.19-13.25L-1.84-13.25L0.06-14.69L0.06-14.69Q0.94-14.69 2.83-14.98L2.83-14.98L2.83-14.98Q4.72-15.28 5.56-15.56L5.56-15.56L4.47-14.69L5.06-14.69L5.06-14.69Q5.50-14.69 5.97-15.39L5.97-15.39L5.97-15.39Q6.44-16.09 6.81-16.09L6.81-16.09L7.38-16.84L7.94-16.84L7.94-16.09L7.38-15.41L7.94-15.41L7.94-12.47L7.94-12.47Q8.63-11.63 8.88-9.94L8.88-9.94L8.88-9.94Q9.31-6.94 10.78-6.69L10.78-6.69L12.50-8.13L12.50-10.31L13.16-11.09L12.50-11.78L12.50-19L13.16-19.75L11.88-21.13L11.88-35.69L11.31-35.69L11.31-35.69Q11.31-36.69 10.73-38.56L10.73-38.56L10.73-38.56Q10.16-40.44 10.16-41.47L10.16-41.47L9.09-43.66L9.09-43.66Q9.09-44.56 7.94-45.50L7.94-45.50L7.94-46.50L7.38-46.50L7.38-46.50Q8.22-47.25 8.63-47.25L8.63-47.25L8.63-47.25Q9.59-47.25 9.59-46.50L9.59-46.50L10.16-46.50L10.78-47.25L15.03-47.25L15.03-47.25Q16.03-47.25 21.44-46.06L21.44-46.06L21.44-46.06Q26.84-44.88 28.19-44.34L28.19-44.34L28.19-44.34Q25.88-42.97 25.66-42.91L25.66-42.91L25.19-42.91L25.75-40.88L25.66-39.28L25.66-39.28Q25.34-39.25 25.06-38L25.06-38L25.06-38Q24.16-34.19 23.19-34.19L23.19-34.19L23.19-34.19Q23.84-33.47 23.84-30.81ZM53.72 0.34L53.72 0.34L53.72 1.09L53.09 1.09L52.31 0.38L52.31 0.38Q52.03 1.19 51.25 1.19L51.25 1.19L51.25 1.88L50.84 1.81L49.97 2.69L49.34 2.13L49.34 3.41L48.47 4.19L48.47 4.19Q46.41 3.63 45.22 3.63L45.22 3.63L45.22 3.63Q44.63 3.63 44.20 1.61L44.20 1.61L44.20 1.61Q43.78-0.41 43.75-0.41L43.75-0.41L43.75-0.41Q43.22-0.41 42.84 0.80L42.84 0.80L42.84 0.80Q42.47 2 42.19 2.28L42.19 2.28L42.19 2.28Q41.38 2.22 40.94 0.44L40.94 0.44L40.94 0.44Q40.75-0.25 40.28-0.80L40.28-0.80L40.28-0.80Q39.81-1.34 39.31-1.34L39.31-1.34L39.31-1.34Q38.81-1.34 36.72-0.50L36.72-0.50L36.72-0.50Q36.63-1.47 35.70-2.73L35.70-2.73L35.70-2.73Q34.78-4 34.78-5.31L34.78-5.31L34.84-5.31L34.84-5.31Q34.84-6.28 34.48-8.59L34.48-8.59L34.48-8.59Q34.13-10.91 33.84-11.78L33.84-11.78L33.84-11.78Q33.19-13.72 32.75-30.66L32.75-30.66L32.75-31.34L32.09-31.34L32.09-32.06L32.75-31.34L32.56-32.81L32.31-32.69L32.09-32.75L32.75-33.50L32.09-33.50L32.09-34.28L32.22-34.28L32.09-35L32.38-34.94L32.38-34.94Q32.81-35.75 32.81-36.63L32.81-36.63L32.75-37.13L32.16-37.13L32.16-37.13Q32.56-37.28 33.44-39.16L33.44-39.16L33.44-39.16Q34.31-41.03 35.33-42.33L35.33-42.33L35.33-42.33Q36.34-43.63 37.56-44.72L37.56-44.72L37.56-44.72Q40.44-47.25 45.22-47.25L45.22-47.25L45.22-46.56L45.78-47.25L45.78-47.25Q46.34-47.25 47.52-46.91L47.52-46.91L47.52-46.91Q48.69-46.56 49.34-46.56L49.34-46.56L49.34-47.25L49.34-47.25Q51.78-47.25 55.72-42.97L55.72-42.97L56.38-43.66L56.44-43.09L55.84-42.97L57-42.19L56.44-41.53L56.44-41.53Q56.63-41.16 57.27-40.61L57.27-40.61L57.27-40.61Q57.91-40.06 58.31-40.06L58.31-40.06L58.47-40.06L60.13-37.88L59.66-37.88L59.66-37.88Q59.47-37.06 59.47-35.28L59.47-35.28L59.47-35.28Q59.47-33.50 59.53-32.75L59.53-32.75L60.13-32.06L60.13-32.06Q60.13-28.47 59.53-26.31L59.53-26.31L60.13-26.31L60.13-26.31Q59.41-14.78 58.78-13.25L58.78-13.25L58.78-13.25Q58.59-12.81 58.05-11.63L58.05-11.63L58.05-11.63Q57.50-10.44 57.19-9.69L57.19-9.69L57.19-9.69Q56.25-7.53 56.25-6L56.25-6L56.88-5.31L56.88-5.31Q56.19-5.31 55.70-4.34L55.70-4.34L55.70-4.34Q55.22-3.38 55.06-2.41L55.06-2.41L55.06-2.41Q54.84-2.25 54.67-2.09L54.67-2.09L54.67-2.09Q54.50-1.94 54.36-1.81L54.36-1.81L54.36-1.81Q54.22-1.69 54.13-1.50L54.13-1.50L54.13-1.50Q54.03-1.31 53.95-1.23L53.95-1.23L53.95-1.23Q53.88-1.16 53.83-0.91L53.83-0.91L53.83-0.91Q53.78-0.66 53.75-0.59L53.75-0.59L53.75-0.59Q53.72-0.41 53.72 0.34ZM44.66-6L45.22-6L45.22-6Q47.50-6 47.50-10.06L47.50-10.06L47.50-10.06Q47.50-10.75 47.44-11.09L47.44-11.09L48.06-11.09L48.06-12.56L48.69-12.56L48.06-13.25L48.06-14.03L48.06-14.03Q48.06-14.69 48.69-15.41L48.69-15.41L48.69-17.63L48.69-17.63Q48.69-19.09 48.06-19.75L48.06-19.75L48.06-21.34L48.06-21.34Q48.06-24.25 47.38-25.66L47.38-25.66L47.38-25.66Q46.69-27.06 45.75-27.06L45.75-27.06L44.66-27.06L44.66-26.31L44.06-26.31L44.06-26.31Q42.31-23.94 42.31-21.22L42.31-21.22L42.31-15.41L42.31-15.41Q42.31-14.91 42.66-14.69L42.66-14.69L42.31-14.69L42.31-12.56L42.31-12.56Q42.31-11.75 42.97-11.09L42.97-11.09L42.97-11.09Q42.97-10 43.50-8.41L43.50-8.41L43.50-8.41Q44.03-6.81 44.66-6L44.66-6ZM32.22-31L32.75-30.66L32.09-30.66L32.22-31ZM91.34 1.13L91.34 1.13L91.50 8.44L90.84 9.19L90.84 6.28L88.97 6.28L88.97 7.75L88.31 7.75L88.31 7.75Q87.69 7.13 87.69 5.50L87.69 5.50L83.31 5.50L82.69 4.81L82.75 2.13L82.75 2.13Q82.75-0.06 82.09-1.72L82.09-1.72L82.69-0.97L82.69-6.09L82.09-6.09L81.44-14.13L81.44-14.75L81-15.25L81.44-15.41L81.44-16.91L80.91-17.63L81.44-19.75L81.44-19.75Q80.88-20.56 80.88-21.56L80.88-21.56L80.88-21.56Q80.88-22.56 80.91-22.69L80.91-22.69L80.91-22.69Q80.31-23.44 80.31-25.03L80.31-25.03L80.31-26.09L80.31-26.09Q80-25.41 76.72-24.50L76.72-24.50L76.72-24.50Q73.44-23.59 73-23.38L73-23.38L72.44-24.16L72.44-23.38L71.19-22L71.19-22Q71.19-27.94 70.13-32.59L70.13-32.59L70.13-32.59Q68.16-41.19 64.31-44.34L64.31-44.34L64.31-44.34Q67.13-44.34 69.34-45.88L69.34-45.88L69.34-45.88Q69.69-45.81 70.70-45.81L70.70-45.81L70.70-45.81Q71.72-45.81 74.30-46.58L74.30-46.58L74.30-46.58Q76.88-47.34 78.09-47.34L78.09-47.34L91.50-47.34L91.50-47.34Q94.56-47.34 98.92-46.34L98.92-46.34L98.92-46.34Q103.28-45.34 104.72-45.09L104.72-45.09L104.72-45.09Q104.72-44.72 102.95-41.39L102.95-41.39L102.95-41.39Q101.19-38.06 100.94-37.88L100.94-37.88L100.38-37.88L100.38-37.13L100.94-37.13L100.94-37.13Q100.94-31.91 99.72-23.38L99.72-23.38L99.09-23.38L97.84-24.84L97.84-24.84Q97-24.66 96.34-24.66L96.34-24.66L96.34-24.66Q94.56-24.66 92.06-26.31L92.06-26.31L91.50-26.31L92.06-24.16L91.50-22.69L91.50-22.69Q92.13-21.94 92.13-19.66L92.13-19.66L92.13-19.66Q92.13-17.38 92.09-16.16L92.09-16.16L92.09-16.16Q92.06-14.94 92.06-14.75L92.06-14.75L92.06-14.75Q92.03-14.75 91.91-14.91L91.91-14.91L91.91-14.91Q91.78-14.91 91.78-14.69L91.78-14.69L92.19-12.69L91.56-8.03L91.56-8.03Q91.56-6.88 92.06-6.09L92.06-6.09L92.06-6.09Q91.34-3.19 91.34 1.13Z" fill="url(#editing-shiny-gradient2)"></path></g></g><style>text {
  font-size: 64px;
  font-family: Arial Black;
  dominant-baseline: central;
  text-anchor: middle;
}</style></svg>