<svg xmlns="http://www.w3.org/2000/svg" viewBox="0 0 500 500"><g id="freepik--Floor--inject-30"><path id="freepik--floor--inject-30" d="M77.66,233.16c-95.18,55-95.17,144,0,199s249.49,54.95,344.67,0,95.17-144,0-199S172.84,178.21,77.66,233.16Z" style="fill:#fafafa"></path></g><g id="freepik--Clouds--inject-30"><g id="freepik--Cloud--inject-30"><path id="freepik--cloud--inject-30" d="M241.09,130.35H235v-11c0-8-8.52-13.62-17.77-13.62s-16.75,6.49-16.75,14.5v1.47a13.13,13.13,0,0,0-7.77-2.47c-6.66,0-12.06,4.68-12.06,10.44v.67h-8.52c-4.39,0-7.94,3.07-7.94,6.87s3.55,6.87,7.94,6.87h69c4.38,0,7.94-3.07,7.94-6.87S245.47,130.35,241.09,130.35Z" style="fill:#f5f5f5"></path><rect x="206.92" y="28.91" width="1" height="81.77" style="fill:#f5f5f5"></rect></g><g id="freepik--cloud--inject-30"><path id="freepik--cloud--inject-30" d="M395.63,110.42h5.27V101c0-6.9,7.34-11.74,15.31-11.74s14.43,5.6,14.43,12.5V103a11.31,11.31,0,0,1,6.7-2.13c5.73,0,10.38,4,10.38,9v.58h7.35c3.78,0,6.84,2.65,6.84,5.92s-3.06,5.92-6.84,5.92H395.63c-3.77,0-6.84-2.65-6.84-5.92S391.86,110.42,395.63,110.42Z" style="fill:#f5f5f5"></path><rect x="425.68" y="28.91" width="1" height="81.77" style="fill:#f5f5f5"></rect></g><g id="freepik--cloud--inject-30"><path id="freepik--cloud--inject-30" d="M314.87,83.35H303.79a7.45,7.45,0,0,0,.09-1.06V79.88c0-4.29-4-7.76-9-7.76a9.76,9.76,0,0,0-5.34,1.54c-.82-5.74-6.45-10.19-13.3-10.19-7.41,0-13.41,5.2-13.41,11.61v3.6A10.35,10.35,0,0,0,264,83.35h-9.21c-2.74,0-5,1.93-5,4.3s2.23,4.31,5,4.31h60.08c2.75,0,5-1.93,5-4.31S317.62,83.35,314.87,83.35Z" style="fill:#f5f5f5"></path><rect x="277.24" y="28.91" width="1" height="37.81" style="fill:#f5f5f5"></rect></g><g id="freepik--cloud--inject-30"><path id="freepik--cloud--inject-30" d="M37.74,88.77h9a4.91,4.91,0,0,1-.08-.86V86c0-3.49,3.26-6.31,7.29-6.31a8.07,8.07,0,0,1,4.35,1.25c.66-4.67,5.24-8.29,10.81-8.29,6,0,10.91,4.23,10.91,9.45V85a8.32,8.32,0,0,1-.92,3.79h7.49a3.54,3.54,0,1,1,0,7H37.74a3.54,3.54,0,1,1,0-7Z" style="fill:#f5f5f5"></path><rect x="68.77" y="28.91" width="1" height="55.28" style="fill:#f5f5f5"></rect></g></g><g id="freepik--Shadows--inject-30"><polygon id="freepik--Shadow--inject-30" points="197.21 440.32 162.02 426.89 157.78 416.78 65.38 375.77 200.09 400.45 218.42 425.39 180.29 417 197.21 440.32" style="fill:#e0e0e0"></polygon><polygon id="freepik--shadow--inject-30" points="251.19 347.4 355.69 287.07 460.19 347.4 451.11 352.64 461.4 357.18 371.75 425.01 254.26 373.24 272.31 359.59 251.19 347.4" style="fill:#e0e0e0"></polygon></g><g id="freepik--Sheets--inject-30"><g id="freepik--paper-sheets--inject-30"><polygon points="461.4 353.22 371.75 421.05 254.26 369.28 343.92 301.45 461.4 353.22" style="fill:#f0f0f0"></polygon><path d="M343.92,301.45c10.24,39.48,19.67,80,27.83,119.6-10.25-39.48-19.66-80-27.83-119.6Z" style="fill:#e0e0e0"></path><path d="M254.26,369.28c68.38-5.91,138.49-11.35,207.15-16.06-68.38,5.92-138.5,11.35-207.15,16.06Z" style="fill:#e0e0e0"></path><polygon points="272.35 355.64 355.69 407.87 439.68 355.28 355.69 403.77 272.35 355.64" style="opacity:0.1"></polygon><polygon points="251.19 343.44 355.69 403.77 460.19 343.44 355.69 283.11 251.19 343.44" style="fill:#f5f5f5"></polygon><path d="M356.48,343.89c34.7,0,69.41-.15,103.71-.45-34.3-.3-69-.45-103.71-.45,0-20-.27-40.08-.79-59.88-.52,19.8-.78,39.84-.78,59.88-34.71,0-69.42.15-103.72.45,34.3.3,69,.45,103.72.45,0,20,.26,40.08.78,59.88C356.21,384,356.47,363.93,356.48,343.89Z" style="fill:#ebebeb"></path></g></g><g id="freepik--origami-bird-3--inject-30"><g id="freepik--origami-crane--inject-30"><g id="freepik--origami-crane--inject-30"><path d="M398,245.65,358.65,225.5a10.93,10.93,0,0,0-10.88.53l-39.91,25.65,30.38,37.94,4.59-16.8,43.94-16Z" style="fill:#6633FF"></path><path d="M398,245.65,358.65,225.5a10.93,10.93,0,0,0-10.88.53l-39.91,25.65,30.38,37.94,4.59-16.8,43.94-16Z" style="fill:#fff;opacity:0.15"></path><path d="M307.86,251.68,347.77,226a10.93,10.93,0,0,1,10.88-.53L398,245.65c-11.35-5-34.58-16.71-39.07-19s-7.57-1.72-12.36,1.1S307.86,251.68,307.86,251.68Z" style="fill:#fff;opacity:0.25"></path><path d="M331.34,281s2.53-10.13,6.38-23.55,6.7-23.07,6.95-25.59-36.18,20.6-36.18,20.6Z" style="fill:#6633FF"></path><path d="M331.34,281s2.53-10.13,6.38-23.55,6.7-23.07,6.95-25.59-36.18,20.6-36.18,20.6Z" style="opacity:0.1"></path><path d="M332.6,282.58s11.39-38.76,14.12-47.43,5.69-10.69,6.34-8,10.22,38.25,10.22,38.25l-20.45,7.42-4.59,16.8Z" style="fill:#6633FF"></path><path d="M356.48,224.68a10.92,10.92,0,0,0-8.71,1.36l-39.91,25.64L305,235.63,276.36,134.06l75.56,74.46Z" style="fill:#6633FF"></path><path d="M356.48,224.68a10.92,10.92,0,0,0-8.71,1.36l-12.2,7.83-2.72-7.93-56.49-91.88,75.56,74.46Z" style="fill:#6633FF"></path><path d="M356.48,224.68a10.92,10.92,0,0,0-8.71,1.36l-12.2,7.83-2.72-7.93-56.49-91.88,75.56,74.46Z" style="fill:#fff;opacity:0.1"></path><path d="M356.48,224.68l-4.56-16.16-19.07,17.42L305,235.63l2.88,16.05L347.77,226A11,11,0,0,1,356.48,224.68Z" style="opacity:0.1"></path><polygon points="404.91 238.81 445.1 142.93 377.45 235.12 398.04 245.65 404.91 238.81" style="fill:#6633FF"></polygon><polygon points="382.87 237.9 445.1 142.93 377.45 235.12 382.87 237.9" style="opacity:0.1"></polygon><polygon points="493.5 218.1 369.33 277.81 342.83 272.82 493.5 218.1" style="fill:#6633FF"></polygon><polygon points="493.5 218.1 369.33 277.81 342.83 272.82 493.5 218.1" style="opacity:0.2"></polygon><polygon points="493.5 218.1 409.3 234.44 386.77 256.86 493.5 218.1" style="fill:#6633FF"></polygon><polygon points="493.5 218.1 409.3 234.44 386.77 256.86 493.5 218.1" style="fill:#fff;opacity:0.1"></polygon><polygon points="327.49 328.92 368.4 287.58 404.19 284.63 409.8 258.35 369.33 277.81 342.83 272.82 327.49 328.92" style="fill:#6633FF"></polygon><polygon points="327.49 328.92 368.4 287.58 404.19 284.63 409.8 258.35 369.33 277.81 342.83 272.82 327.49 328.92" style="opacity:0.1"></polygon><polygon points="368.4 287.58 369.33 277.81 409.8 258.35 404.19 284.63 368.4 287.58" style="opacity:0.05"></polygon><polygon points="342.83 272.82 369.21 279.08 368.4 287.58 370.68 278.73 409.8 258.35 369.33 277.81 342.83 272.82" style="opacity:0.2"></polygon><path d="M287.78,227.67h-16a1.27,1.27,0,0,0-1.2.85L261,255.11l19-21.93a1.45,1.45,0,0,1,2.41.33l45.07,95.41,10.75-39.3-48.3-60.9A2.76,2.76,0,0,0,287.78,227.67Z" style="fill:#6633FF"></path><polygon points="308.49 252.47 336.46 290.54 327.49 328.92 338.24 289.62 308.49 252.47" style="opacity:0.2"></polygon><path d="M280,233.18l-19,21.93,24.84-14.34-3.43-7.26A1.45,1.45,0,0,0,280,233.18Z" style="fill:#6633FF"></path><path d="M280,233.18l-19,21.93,24.84-14.34-3.43-7.26A1.45,1.45,0,0,0,280,233.18Z" style="opacity:0.2"></path><polygon points="306.68 317.31 283.06 242.38 285.85 240.77 317.06 306.85 306.68 317.31" style="fill:#6633FF"></polygon><polygon points="306.68 317.31 283.06 242.38 285.85 240.77 317.06 306.85 306.68 317.31" style="opacity:0.1"></polygon><path d="M270.73,229.13c.38-1,.68-1.1,1.45-1.08,2.6.09,8.45.39,12.18.63s4.71.81,2.12,1.32-4.27.79-5.53,1.15c-1.09.32-1.69,1-2.63,2.21-3.71,4.53-17.31,21.75-17.31,21.75S270.34,230.12,270.73,229.13Z" style="fill:#fff;opacity:0.2"></path></g><g id="freepik--Cord--inject-30"><path d="M353,227.33a.76.76,0,0,1-.75-.75V28.91a.75.75,0,0,1,1.5,0V226.58A.76.76,0,0,1,353,227.33Z" style="fill:#e0e0e0"></path><path d="M347.76,98.52l-.4,0a3.82,3.82,0,0,1-3.06-1.77,3.47,3.47,0,0,1,.89-4.48c.78-.62,3.68-2.27,8.29,2.34a.75.75,0,0,1,0,1A8,8,0,0,1,347.76,98.52ZM347.58,93a2.32,2.32,0,0,0-1.46.46,2,2,0,0,0-.54,2.52A2.31,2.31,0,0,0,347.47,97a6.09,6.09,0,0,0,4.42-1.86C350.14,93.55,348.68,93,347.58,93Z" style="fill:#e0e0e0"></path><path d="M358.14,98.52a8,8,0,0,1-5.76-2.91.75.75,0,0,1,0-1c4.61-4.61,7.51-3,8.29-2.34a3.47,3.47,0,0,1,.89,4.48,3.82,3.82,0,0,1-3.06,1.77ZM354,95.15A6.09,6.09,0,0,0,358.43,97a2.31,2.31,0,0,0,1.89-1.07,2,2,0,0,0-.54-2.52C358.75,92.61,356.71,92.67,354,95.15Z" style="fill:#e0e0e0"></path><path d="M359.89,104.51a5.07,5.07,0,0,1-2.72-.85,11.4,11.4,0,0,1-4.29-5.9,8,8,0,0,1-3.18,3.78,4,4,0,0,1-3.15.56.75.75,0,0,1,.43-1.44,2.6,2.6,0,0,0,2-.41c.9-.53,2.53-1.91,3.28-5.29a.75.75,0,0,1,.73-.59h0a.77.77,0,0,1,.73.62c.6,3.25,2.28,6.15,4.28,7.4a3.33,3.33,0,0,0,2.65.52.75.75,0,1,1,.39,1.45A4.2,4.2,0,0,1,359.89,104.51Z" style="fill:#e0e0e0"></path></g></g></g><g id="freepik--origami-bird-2--inject-30"><g id="freepik--origami-parakeet--inject-30"><polygon points="168.96 424.01 197.21 440.32 187.79 413.14 168.96 424.01" style="fill:#6633FF"></polygon><polygon points="171.35 425.39 187.79 413.14 168.96 424.01 171.35 425.39" style="opacity:0.2"></polygon><polygon points="192.49 410.42 218.42 425.39 209.78 400.45 192.49 410.42" style="fill:#6633FF"></polygon><polygon points="192.49 410.42 218.42 425.39 209.78 400.45 192.49 410.42" style="opacity:0.2"></polygon><polygon points="220.93 328.98 232.88 381.67 217.2 390.72 207.12 321 220.93 328.98" style="fill:#6633FF"></polygon><polygon points="220.93 328.98 232.88 381.67 217.2 390.72 207.12 321 220.93 328.98" style="opacity:0.2"></polygon><polygon points="232.88 381.67 212.96 361.4 217.2 390.72 232.88 381.67" style="opacity:0.05"></polygon><polygon points="207.12 321 220.93 328.98 224.37 344.17 209.62 338.3 207.12 321" style="fill:#e0e0e0"></polygon><polygon points="207.12 321 218.42 387.9 232.88 381.67 217.2 390.72 207.12 321" style="opacity:0.2"></polygon><polygon points="151.7 334.31 124.88 359.11 145.96 404.14 163.91 397.77 151.7 334.31" style="fill:#6633FF"></polygon><polygon points="151.7 334.31 162.38 396.82 145.96 404.14 163.91 397.77 151.7 334.31" style="opacity:0.2"></polygon><polygon points="143.22 398.28 65.38 363.09 126.74 363.09 143.22 398.28" style="fill:#6633FF"></polygon><polygon points="126.74 363.09 139.67 394.95 65.38 363.09 143.22 398.28 126.74 363.09" style="opacity:0.2"></polygon><path d="M169,424l49-28.27-12.34-85.29a2.65,2.65,0,0,1,4.72-2l19.86,25.85-9.42-32.62-33.89-11.77a5,5,0,0,0-5.34,1.37l-31.39,34.87Z" style="fill:#6633FF"></path><polygon points="150.13 326.16 211.24 349.53 211.01 347.9 150.13 326.16" style="opacity:0.1"></polygon><path d="M186.86,289.92l33.89,11.77,9.42,32.62-19.86-25.85a2.65,2.65,0,0,0-4.72,2L211,347.9l-60.88-21.74,31.39-34.87A5,5,0,0,1,186.86,289.92Z" style="fill:#f0f0f0"></path><path d="M209.18,307.59c-8-4.52-17.84-10.77-21.39-13.06s-3-3.22,9,.27c12.19,3.53,23.93,6.89,23.93,6.89l9.42,32.62-19.86-25.85A2.68,2.68,0,0,0,209.18,307.59Z" style="fill:#e0e0e0"></path><path d="M205.59,310.45,207.12,321l23,13.31-19.85-25.85A2.65,2.65,0,0,0,205.59,310.45Z" style="fill:#e0e0e0"></path><path d="M205.59,310.45,207.12,321l23,13.31-19.85-25.85A2.65,2.65,0,0,0,205.59,310.45Z" style="opacity:0.2"></path><g style="opacity:0.05"><path d="M150.13,326.16c22.37,21.86,46.52,46.65,67.8,69.58-22.38-21.87-46.52-46.65-67.8-69.58Z"></path></g></g></g><g id="freepik--origami-bird-1--inject-30"><g id="freepik--origami-parakeet--inject-30"><g id="freepik--origami-dove--inject-30"><path d="M88.35,113.63l24.57,92.26h0l16.32-13.76a3.16,3.16,0,0,1,1.94-.74l12.57-.43c0-.66-13.16-52.92-13.16-52.92Z" style="fill:#6633FF"></path><path d="M88.35,113.63l24.57,92.26h0l16.32-13.76a3.16,3.16,0,0,1,1.94-.74l12.57-.43c0-.66-13.16-52.92-13.16-52.92Z" style="fill:#fff;opacity:0.15"></path><polygon points="137.93 256.45 101.14 277.16 90.97 227.37 77.01 180.28 137.93 256.45" style="fill:#6633FF"></polygon><polygon points="137.93 256.45 101.14 277.16 90.97 227.37 77.01 180.28 137.93 256.45" style="opacity:0.1"></polygon><polygon points="90.97 227.37 102.5 274.98 115.48 269.08 101.14 277.16 90.97 227.37" style="opacity:0.15"></polygon><polygon points="90.97 227.37 137.93 256.45 77.01 180.28 90.97 227.37" style="opacity:0.05"></polygon><polygon points="90.97 227.37 107.55 308.52 76.45 329.21 90.97 227.37" style="fill:#6633FF"></polygon><polygon points="90.97 227.37 107.55 308.52 76.45 329.21 90.97 227.37" style="fill:#fff;opacity:0.1"></polygon><polygon points="108.54 273 117.05 295.11 106.33 302.5 101.14 277.16 108.54 273" style="fill:#6633FF"></polygon><polygon points="108.54 273 117.05 295.11 106.33 302.5 101.14 277.16 108.54 273" style="opacity:0.25"></polygon><polygon points="77.01 180.28 24.97 150.23 90.97 227.37 77.01 180.28" style="fill:#6633FF"></polygon><path d="M103.71,213.66l25.55-21.54a3.23,3.23,0,0,1,1.94-.75l29.14-1a3.13,3.13,0,0,1,2.67,1.36l17.61,26.14-26.94-21.55a2.17,2.17,0,0,0-3.47,1.25l-12.28,58.86Z" style="fill:#6633FF"></path><path d="M152.85,195.93c-2.7-.38-14.87-2.15-17.73-2.5s-3.05-.89,5.22-1.47c6.95-.5,15.65-1,19.47-1.22a3.2,3.2,0,0,1,3.07,1.39l17.74,25.76-26.94-21.55A2.3,2.3,0,0,0,152.85,195.93Z" style="fill:#fff;opacity:0.2"></path><path d="M147.63,210l33,7.93-27-21.54a2.15,2.15,0,0,0-3.46,1.25Z" style="fill:#6633FF"></path><path d="M147.63,210l33,7.93-27-21.54a2.15,2.15,0,0,0-3.46,1.25Z" style="opacity:0.2"></path><polygon points="156.18 212.01 148.56 248.04 138.46 253.92 147.63 209.96 156.18 212.01" style="fill:#6633FF"></polygon><polygon points="156.18 212.01 148.56 248.04 138.46 253.92 147.63 209.96 156.18 212.01" style="opacity:0.1"></polygon><g style="opacity:0.05"><path d="M91,227.37c15.88,8.91,31.52,18.48,46.68,28.59C121.76,247,106.12,237.47,91,227.37Z"></path></g></g><g id="freepik--cord--inject-30"><path d="M119.66,201.22a.76.76,0,0,1-.75-.75V28.91a.75.75,0,1,1,1.5,0V200.47A.75.75,0,0,1,119.66,201.22Z" style="fill:#e0e0e0"></path><path d="M114.66,164.22h-.39a3.7,3.7,0,0,1-3-1.73,3.39,3.39,0,0,1,.86-4.35c.76-.59,3.57-2.19,8,2.26a.74.74,0,0,1,0,1A7.69,7.69,0,0,1,114.66,164.22Zm-.17-5.36a2.18,2.18,0,0,0-1.39.45,1.88,1.88,0,0,0-.51,2.38,2.16,2.16,0,0,0,1.8,1,5.85,5.85,0,0,0,4.22-1.76C116.94,159.43,115.54,158.86,114.49,158.86Z" style="fill:#e0e0e0"></path><path d="M124.66,164.22a7.72,7.72,0,0,1-5.57-2.81.77.77,0,0,1,0-1c4.46-4.45,7.27-2.85,8-2.26a3.38,3.38,0,0,1,.87,4.35,3.7,3.7,0,0,1-3,1.73ZM120.72,161a5.86,5.86,0,0,0,4.22,1.76,2.16,2.16,0,0,0,1.8-1,1.88,1.88,0,0,0-.52-2.38C125.24,158.53,123.3,158.59,120.72,161Z" style="fill:#e0e0e0"></path><path d="M126.35,170a4.94,4.94,0,0,1-2.64-.82,11,11,0,0,1-4.12-5.64,7.62,7.62,0,0,1-3,3.6,3.93,3.93,0,0,1-3.06.54.75.75,0,0,1,.43-1.44,2.54,2.54,0,0,0,1.87-.39c.86-.51,2.42-1.84,3.14-5.08a.76.76,0,0,1,.73-.59h0a.76.76,0,0,1,.72.62c.58,3.12,2.19,5.91,4.11,7.11a3.23,3.23,0,0,0,2.53.5.74.74,0,0,1,.92.52.76.76,0,0,1-.52.93A4.46,4.46,0,0,1,126.35,170Z" style="fill:#e0e0e0"></path></g></g></g></svg>